<mxfile host="Electron" modified="2023-04-15T07:24:55.754Z" agent="Mozilla/5.0 (Macintosh; Intel Mac OS X 10_15_7) AppleWebKit/537.36 (KHTML, like Gecko) draw.io/21.1.2 Chrome/106.0.5249.199 Electron/21.4.3 Safari/537.36" etag="4YRX_InnbYCCvyXbdVPH" version="21.1.2" type="device">
  <diagram name="第 1 页" id="I9pwOl8dpyKCftlsQeKv">
    <mxGraphModel dx="1114" dy="819" grid="1" gridSize="10" guides="1" tooltips="1" connect="1" arrows="1" fold="1" page="1" pageScale="1" pageWidth="827" pageHeight="1169" math="0" shadow="0">
      <root>
        <mxCell id="0" />
        <mxCell id="1" parent="0" />
        <mxCell id="tDgT15SjHCRqyCxSypUn-1" value="&lt;font style=&quot;font-size: 15px;&quot;&gt;&lt;b&gt;Trap Handler&lt;/b&gt;&lt;/font&gt;" style="rounded=0;whiteSpace=wrap;html=1;" vertex="1" parent="1">
          <mxGeometry x="60" y="300" width="120" height="60" as="geometry" />
        </mxCell>
        <mxCell id="tDgT15SjHCRqyCxSypUn-2" value="&lt;b&gt;&lt;font style=&quot;font-size: 15px;&quot;&gt;特权级指令处理&lt;/font&gt;&lt;/b&gt;" style="rounded=0;whiteSpace=wrap;html=1;" vertex="1" parent="1">
          <mxGeometry x="380" y="300" width="120" height="60" as="geometry" />
        </mxCell>
        <mxCell id="tDgT15SjHCRqyCxSypUn-3" value="" style="endArrow=classic;html=1;rounded=0;entryX=0;entryY=0.5;entryDx=0;entryDy=0;exitX=1;exitY=0.5;exitDx=0;exitDy=0;" edge="1" parent="1" source="tDgT15SjHCRqyCxSypUn-1" target="tDgT15SjHCRqyCxSypUn-2">
          <mxGeometry width="50" height="50" relative="1" as="geometry">
            <mxPoint x="180" y="340" as="sourcePoint" />
            <mxPoint x="230" y="290" as="targetPoint" />
          </mxGeometry>
        </mxCell>
        <mxCell id="tDgT15SjHCRqyCxSypUn-4" value="&lt;font style=&quot;font-size: 15px;&quot;&gt;&lt;b&gt;SBI 处理&lt;/b&gt;&lt;/font&gt;" style="rounded=0;whiteSpace=wrap;html=1;" vertex="1" parent="1">
          <mxGeometry x="380" y="200" width="120" height="60" as="geometry" />
        </mxCell>
        <mxCell id="tDgT15SjHCRqyCxSypUn-5" value="" style="endArrow=classic;html=1;rounded=0;entryX=0;entryY=0.5;entryDx=0;entryDy=0;" edge="1" parent="1" target="tDgT15SjHCRqyCxSypUn-4">
          <mxGeometry width="50" height="50" relative="1" as="geometry">
            <mxPoint x="270" y="330" as="sourcePoint" />
            <mxPoint x="270" y="220" as="targetPoint" />
            <Array as="points">
              <mxPoint x="270" y="230" />
            </Array>
          </mxGeometry>
        </mxCell>
        <mxCell id="tDgT15SjHCRqyCxSypUn-6" value="&lt;font style=&quot;font-size: 15px;&quot;&gt;&lt;b&gt;页错误处理&lt;/b&gt;&lt;/font&gt;" style="rounded=0;whiteSpace=wrap;html=1;" vertex="1" parent="1">
          <mxGeometry x="380" y="400" width="120" height="60" as="geometry" />
        </mxCell>
        <mxCell id="tDgT15SjHCRqyCxSypUn-7" value="" style="endArrow=classic;html=1;rounded=0;entryX=0;entryY=0.5;entryDx=0;entryDy=0;" edge="1" parent="1" target="tDgT15SjHCRqyCxSypUn-6">
          <mxGeometry width="50" height="50" relative="1" as="geometry">
            <mxPoint x="270" y="330" as="sourcePoint" />
            <mxPoint x="350" y="410" as="targetPoint" />
            <Array as="points">
              <mxPoint x="270" y="430" />
            </Array>
          </mxGeometry>
        </mxCell>
        <mxCell id="tDgT15SjHCRqyCxSypUn-8" value="&lt;span style=&quot;font-size: 15px;&quot;&gt;无效指令异常&lt;/span&gt;" style="text;html=1;strokeColor=none;fillColor=none;align=center;verticalAlign=middle;whiteSpace=wrap;rounded=0;" vertex="1" parent="1">
          <mxGeometry x="280" y="290" width="100" height="40" as="geometry" />
        </mxCell>
        <mxCell id="tDgT15SjHCRqyCxSypUn-9" value="&lt;font style=&quot;font-size: 15px;&quot;&gt;用户态系统调用&lt;/font&gt;" style="text;html=1;strokeColor=none;fillColor=none;align=center;verticalAlign=middle;whiteSpace=wrap;rounded=0;" vertex="1" parent="1">
          <mxGeometry x="270" y="190" width="110" height="30" as="geometry" />
        </mxCell>
        <mxCell id="tDgT15SjHCRqyCxSypUn-10" value="&lt;font style=&quot;font-size: 15px;&quot;&gt;页错误&lt;/font&gt;" style="text;html=1;strokeColor=none;fillColor=none;align=center;verticalAlign=middle;whiteSpace=wrap;rounded=0;" vertex="1" parent="1">
          <mxGeometry x="295" y="390" width="60" height="30" as="geometry" />
        </mxCell>
        <mxCell id="tDgT15SjHCRqyCxSypUn-11" value="&lt;font style=&quot;font-size: 15px;&quot;&gt;&lt;b&gt;时钟中断处理&lt;/b&gt;&lt;/font&gt;" style="rounded=0;whiteSpace=wrap;html=1;" vertex="1" parent="1">
          <mxGeometry x="380" y="510" width="120" height="60" as="geometry" />
        </mxCell>
        <mxCell id="tDgT15SjHCRqyCxSypUn-12" value="" style="endArrow=classic;html=1;rounded=0;" edge="1" parent="1">
          <mxGeometry width="50" height="50" relative="1" as="geometry">
            <mxPoint x="270" y="430" as="sourcePoint" />
            <mxPoint x="380" y="540" as="targetPoint" />
            <Array as="points">
              <mxPoint x="270" y="540" />
            </Array>
          </mxGeometry>
        </mxCell>
        <mxCell id="tDgT15SjHCRqyCxSypUn-13" value="&lt;font style=&quot;font-size: 15px;&quot;&gt;时钟中断&lt;/font&gt;" style="text;html=1;strokeColor=none;fillColor=none;align=center;verticalAlign=middle;whiteSpace=wrap;rounded=0;" vertex="1" parent="1">
          <mxGeometry x="295" y="500" width="65" height="30" as="geometry" />
        </mxCell>
      </root>
    </mxGraphModel>
  </diagram>
</mxfile>
